<svg xmlns="http://www.w3.org/2000/svg" xml:space="preserve" width="848" height="848" style="shape-rendering:geometricPrecision;text-rendering:geometricPrecision;image-rendering:optimizeQuality;fill-rule:evenodd;clip-rule:evenodd"><defs><style>.fil2{fill:#fffffe;fill-rule:nonzero}</style></defs><g id="Layer_x0020_1"><rect width="2048" height="2048" rx="256.001" ry="256.001" style="fill:#6b7280"/><path style="fill:none" d="M255.998 255.999H1792V1792H255.998z"/><path class="fil2" d="M1346.18 627.758c23 55.526 37.18 115.511 40.8 178.197h1.015v32c0 74.34-14.848 145.368-41.749 210.273-27.921 67.364-68.77 127.937-119.425 178.59a550.888 550.888 0 0 1-178.67 119.36c-64.905 26.885-135.906 41.725-210.189 41.725-74.288 0-145.29-14.84-210.197-41.725-67.505-27.962-128.104-68.787-178.676-119.356-50.57-50.57-91.396-111.168-119.36-178.674-26.885-64.905-41.726-135.907-41.726-210.192 0-74.287 14.84-145.292 41.725-210.2 27.962-67.505 68.788-128.103 119.36-178.674 50.571-50.572 111.17-91.398 178.676-119.36 64.906-26.885 135.912-41.724 210.199-41.724 74.283 0 145.284 14.838 210.19 41.726a550.906 550.906 0 0 1 178.67 119.36 550.915 550.915 0 0 1 119.357 178.674zM593.396 865.684c-13.153 0-23.815 10.663-23.815 23.815 0 13.152 10.662 23.814 23.815 23.814h79.828c1.319 5.965 2.771 11.51 4.497 17.047 2.034 6.526 4.388 12.822 7.29 19.543-23.726 4.638-43.054 14.197-58.01 28.841-22.116 21.658-33.138 52.949-33.138 94.373 0 13.151 10.663 23.814 23.814 23.814 13.153 0 23.815-10.663 23.815-23.815 0-28.157 6.257-48.217 18.811-60.511 44.108-43.19 64.487 7.734 99.321 29.509 23.417 14.636 49.995 22.976 78.326 22.976 28.16 0 54.181-8.217 77.286-22.66 19.29-12.058 36.4-28.396 50.858-47.807 24.567 1.624 44.551 8.35 58.188 20.406 14.043 12.414 22.047 31.637 22.047 58.087 0 13.152 10.663 23.815 23.815 23.815 13.151 0 23.814-10.663 23.814-23.815 0-40.996-13.88-72.092-38.233-93.622-17.057-15.08-38.83-24.885-64.139-29.599 5.22-11.345 9.598-23.258 11.968-36.582h78.955c13.152 0 23.814-10.662 23.814-23.814s-10.662-23.815-23.814-23.815h-74.279c.954-18.191-.863-31.186-9.118-59.388 22.113-5.163 41.271-14.46 56.613-28.022 24.353-21.53 38.233-52.626 38.233-93.622 0-13.153-10.663-23.815-23.815-23.815-13.151 0-23.814 10.662-23.814 23.815 0 26.45-8.003 45.672-22.047 58.087-13.66 12.077-33.69 18.805-58.315 20.413-3.063-12.513-7.425-24.324-12.904-35.286-9.57-19.15-22.57-35.61-38.035-48.623a119.13 119.13 0 0 0 16.04-20.508c11.19-18.08 17.65-39.292 17.65-61.899h-47.63c0 13.663-3.804 26.323-10.393 36.968-4.99 8.063-11.618 15.055-19.433 20.537-9.208-3.304-19.579-5.244-33.312-5.244-18.169 0-30.46 3.401-41.962 8.865a70.798 70.798 0 0 1-23.25-21.49c-7.682-11.235-12.176-24.88-12.176-39.636h-47.63c0 24.587 7.585 47.464 20.55 66.427a118.145 118.145 0 0 0 20.358 22.766c-11.64 11.799-21.704 26.017-29.645 41.905-5.511 11.028-10.027 22.873-13.36 35.274-22.767-1.402-39.61-7.35-50.532-18.046-12.554-12.294-18.811-32.354-18.811-60.51 0-13.153-10.662-23.815-23.815-23.815-13.152 0-23.815 10.662-23.815 23.814 0 41.424 11.022 72.715 33.14 94.372 13.204 12.933 29.82 21.897 49.862 27.011-3.439 11.742-5.815 21.09-7.449 31.138-1.468 9.032-2.23 17.862-2.487 28.512h-73.532zM1425.28 1149.05l341.485 341.483.08.08 9.375 9.375v.914a194.812 194.812 0 0 1 32.873 53.187c9.935 23.986 14.902 49.37 14.902 74.596 0 25.254-4.966 50.654-14.9 74.645a194.443 194.443 0 0 1-42.24 63.224v.126l-.078.079-.094.093c-18.55 18.55-40.146 32.64-63.355 42.25-23.99 9.935-49.396 14.902-74.652 14.902-25.225 0-50.608-4.967-74.594-14.902a194.806 194.806 0 0 1-53.187-32.874h-.914l-9.376-9.376-.08-.08-341.485-341.481-20.857-20.859-28.028-28.028 33.403-21.472 24.858-15.979a597.74 597.74 0 0 0 52.06-37.556c16.297-13.145 32.261-27.533 47.817-43.09 15.558-15.557 29.946-31.522 43.09-47.819a597.983 597.983 0 0 0 37.56-52.063l15.98-24.857 21.472-33.403 28.028 28.028 20.857 20.857z"/></g></svg>