<svg xmlns="http://www.w3.org/2000/svg" xml:space="preserve" width="655.359" height="655.359" style="shape-rendering:geometricPrecision;text-rendering:geometricPrecision;image-rendering:optimizeQuality;fill-rule:evenodd;clip-rule:evenodd" viewBox="0 0 6.827 6.827"><defs><style>.fil2{fill:#fffffe;fill-rule:nonzero}</style></defs><g id="Layer_x0020_1"><rect width="6.827" height="6.827" rx=".853" ry=".853" style="fill:#ec407a"/><path d="M4.659 3.41a.89.89 0 0 0-.211.027l-.189.04.07.282.216-.044c.085-.018.138-.03.16-.04a.146.146 0 0 0 .074-.06.124.124 0 0 0 .01-.096.14.14 0 0 0-.045-.076.154.154 0 0 0-.085-.033zM1.05 1.56c-.071.028-.159.077-.158.113.015.636.099 1.34.224 2.036.14.77.33 1.533.537 2.187V5.9c.014.052.072.084.13.072l4.066-.898.003-.001c.057-.012.093-.064.08-.117a21.373 21.373 0 0 1-.604-3.852c-.009-.053-.063-.09-.121-.082l-2.966.397.026.025a.187.187 0 0 1-.005.279c-.022.02-.013.01-.03.021l-.173.11.213.532-.485-.358-.081.052-.097.061a.206.206 0 0 1-.273-.046c-.018-.025-.01-.016-.02-.033l-.024-.045-.046-.088a.186.186 0 0 1 .001-.177.208.208 0 0 1-.153-.11L1.05 1.56zm.466 1.315a.107.107 0 0 1 .086-.124l3.148-.549a.107.107 0 0 1 .037.21l-3.148.55a.107.107 0 0 1-.123-.087zm.62.41.233-.047.165.67c.022.087.03.157.025.207a.282.282 0 0 1-.087.174.432.432 0 0 1-.222.105.387.387 0 0 1-.285-.034c-.076-.046-.129-.125-.157-.238l.215-.069c.018.06.038.101.06.123a.138.138 0 0 0 .13.033c.052-.01.086-.032.1-.063.016-.032.013-.09-.009-.176l-.168-.684zm.567.447a.632.632 0 0 1-.014-.282.49.49 0 0 1 .198-.294.682.682 0 0 1 .24-.093.602.602 0 0 1 .445.06c.126.076.21.2.253.372.042.172.024.316-.053.433a.557.557 0 0 1-.372.229.605.605 0 0 1-.447-.06.558.558 0 0 1-.25-.365zm1.175-.805.463-.095c.091-.02.16-.03.208-.032a.305.305 0 0 1 .242.089c.033.032.055.07.066.116a.233.233 0 0 1-.01.146.26.26 0 0 1-.096.118.33.33 0 0 1 .186.062c.05.038.081.087.097.148a.296.296 0 0 1-.076.278.348.348 0 0 1-.145.082 4.457 4.457 0 0 1-.28.066l-.394.08-.261-1.058zM1.883 4.87a.106.106 0 0 1 .08-.127L5.11 4.05a.106.106 0 0 1 .045.208L2.01 4.95a.106.106 0 0 1-.127-.08zm1.29-1.625a.305.305 0 0 0-.21.139c-.044.072-.051.17-.021.291.03.12.082.205.158.254.076.05.16.065.254.045a.3.3 0 0 0 .207-.139c.044-.074.051-.172.021-.295-.03-.12-.081-.205-.154-.253a.327.327 0 0 0-.254-.042zm.982-.19.06.245.154-.032c.091-.019.147-.031.169-.038a.157.157 0 0 0 .085-.058.106.106 0 0 0 .014-.09.118.118 0 0 0-.05-.073.148.148 0 0 0-.097-.02 2.97 2.97 0 0 0-.2.038l-.135.028z" style="fill:#fffffe"/><path class="fil2" d="M1.218 1a.366.366 0 0 1 .26-.051c.09.014.177.06.245.125l.117.11a.08.08 0 0 1 .018.097.103.103 0 0 0-.008.045c0 .013.005.024.012.034.01.012.025.021.043.026a.17.17 0 0 0 .08 0 .1.1 0 0 1 .096.027l.113.108a.08.08 0 0 1-.003.12.094.094 0 0 1-.016.013l-.623.396a.1.1 0 0 1-.13-.02.084.084 0 0 1-.011-.02l-.07-.132H1.34a.08.08 0 0 1 .009-.088.133.133 0 0 0 .027-.067.067.067 0 0 0-.013-.046.07.07 0 0 0-.03-.022.135.135 0 0 0-.054-.009.094.094 0 0 1-.09-.055l-.07-.132a.388.388 0 0 1-.045-.253A.31.31 0 0 1 1.218 1z"/><path class="fil2" d="m2.175 2.266-.255-.488-.131-.018-.018.131z"/></g></svg>