<svg xmlns="http://www.w3.org/2000/svg" viewBox="0 0 64 64"><g data-name="09-Leaderboard"><path style="fill:#422b57" d="M63 59v4H1v-4h62z"/><path style="fill:#774e9d" d="M41 45h18v14H41z"/><path style="fill:#9c59a9" d="M5 37h18v22H5z"/><path d="M34 17v4h-4v-4l.07-.27a7.033 7.033 0 0 0 3.86 0z" style="fill:#ff9102"/><path style="fill:#ffcb02" d="M37 21v4H27v-4h10zM39 10a5.365 5.365 0 0 1-.08.99 6.972 6.972 0 0 1-4.99 5.74 7.033 7.033 0 0 1-3.86 0 6.972 6.972 0 0 1-4.99-5.74A5.365 5.365 0 0 1 25 10V1h14v9z"/><path style="fill:#cb73db" d="M23 25h18v34H23z"/><path d="M29.08 10.99A5.365 5.365 0 0 1 29 10V1h-4v9a5.365 5.365 0 0 0 .08.99 6.972 6.972 0 0 0 4.99 5.74 7.033 7.033 0 0 0 3.86 0c.024-.007.046-.019.07-.026a6.968 6.968 0 0 1-4.92-5.714z" style="fill:#ffab02"/><path d="M41.515 8.826A2 2 0 0 0 42 7.56V4h-3v6a3.08 3.08 0 0 0 2.515-1.174zM22 4v3.56a2 2 0 0 0 .492 1.274A3.073 3.073 0 0 0 25 10V4z" style="fill:none"/><path d="M27 21v4h10v-2h-6a1 1 0 0 1-1-1v-1z" style="fill:#ffab02"/><path d="M41 45v14h18v-3h-8a6 6 0 0 1-6-6v-5z" style="fill:#654285"/><path d="M23 37v22H5v-3h8a6 6 0 0 0 6-6V37z" style="fill:#8b4f96"/><path d="M23 25v34h18v-3h-8a6 6 0 0 1-6-6V25z" style="fill:#b667c4"/><path d="M63 58h-3V45a1 1 0 0 0-1-1H46v2h12v12H42V46h2v-2h-2V34h-2v24H24V26h16v2h2v-3a1 1 0 0 0-1-1h-3v-3a1 1 0 0 0-1-1h-2v-2.589a8.024 8.024 0 0 0 4.75-5.464 5.007 5.007 0 0 0 3.3-1.84A3.95 3.95 0 0 0 44 7.558V3a1 1 0 0 0-1-1h-3V1a1 1 0 0 0-1-1H25a1 1 0 0 0-1 1v1h-3a1 1 0 0 0-1 1v4.558a3.95 3.95 0 0 0 .955 2.549 5.007 5.007 0 0 0 3.3 1.84A8.024 8.024 0 0 0 29 17.411V20h-2a1 1 0 0 0-1 1v3h-3a1 1 0 0 0-1 1v11h-2v2h2v20H6V38h12v-2H5a1 1 0 0 0-1 1v21H1a1 1 0 0 0-1 1v4a1 1 0 0 0 1 1h62a1 1 0 0 0 1-1v-4a1 1 0 0 0-1-1zM22 7.558V4h2v5.844a3.068 3.068 0 0 1-1.509-1.017A1.981 1.981 0 0 1 22 7.558zM42 4v3.558a1.981 1.981 0 0 1-.491 1.269A3.068 3.068 0 0 1 40 9.844V4zm-16 6V2h12v8a6 6 0 0 1-12 0zm5 7.931a7.281 7.281 0 0 0 2 0V20h-2zM28 22h8v2h-8zm34 40H2v-2h60z"/><path d="M40 30h2v2h-2zM37 10h-2c0 .123-.045 3-4 3v2c4.746 0 6-3.271 6-5z"/></g></svg>