<svg version="1.1" id="Icon_Set" xmlns="http://www.w3.org/2000/svg" x="0" y="0" viewBox="0 0 256 256" style="enable-background:new 0 0 256 256" xml:space="preserve"><style>.st0{fill:#4c4372}.st6{fill:#7babf1}</style><circle cx="128" cy="128" r="103.5" style="fill:#f0c48a"/><path class="st0" d="M198.623 131H57.377a3 3 0 1 1 0-6h141.246a3 3 0 1 1 0 6z"/><path class="st0" d="M128 201.623a3 3 0 0 1-3-3V57.377a3 3 0 1 1 6 0v141.246a3 3 0 0 1-3 3z"/><path class="st0" d="M128 215.688a2.99 2.99 0 0 1-2.121-.879l-84.747-84.747a2.998 2.998 0 0 1 0-4.242l84.747-84.747a2.998 2.998 0 0 1 4.242 0l84.747 84.747a2.998 2.998 0 0 1 0 4.242l-84.747 84.747a2.99 2.99 0 0 1-2.121.879zM47.495 127.94 128 208.445l80.505-80.505L128 47.436 47.495 127.94z"/><circle class="st6" cx="43.836" cy="128" r="13.541"/><circle class="st6" cx="212.164" cy="128" r="13.541"/><circle class="st6" cx="128" cy="43.836" r="13.541"/><circle class="st6" cx="128" cy="212.164" r="13.541"/><path class="st0" d="M43.836 144.541c-9.121 0-16.541-7.42-16.541-16.541s7.42-16.541 16.541-16.541 16.541 7.42 16.541 16.541-7.42 16.541-16.541 16.541zm0-27.082c-5.813 0-10.541 4.729-10.541 10.541s4.729 10.541 10.541 10.541S54.377 133.813 54.377 128s-4.729-10.541-10.541-10.541zM212.164 144.541c-9.121 0-16.541-7.42-16.541-16.541s7.42-16.541 16.541-16.541 16.541 7.42 16.541 16.541-7.42 16.541-16.541 16.541zm0-27.082c-5.813 0-10.541 4.729-10.541 10.541s4.729 10.541 10.541 10.541 10.541-4.729 10.541-10.541-4.728-10.541-10.541-10.541zM128 60.377c-9.121 0-16.541-7.42-16.541-16.541s7.42-16.541 16.541-16.541 16.541 7.42 16.541 16.541-7.42 16.541-16.541 16.541zm0-27.082c-5.813 0-10.541 4.729-10.541 10.541S122.188 54.377 128 54.377s10.541-4.729 10.541-10.541S133.813 33.295 128 33.295zM128 228.705c-9.121 0-16.541-7.42-16.541-16.541s7.42-16.541 16.541-16.541 16.541 7.42 16.541 16.541-7.42 16.541-16.541 16.541zm0-27.082c-5.813 0-10.541 4.729-10.541 10.541s4.729 10.541 10.541 10.541 10.541-4.729 10.541-10.541-4.728-10.541-10.541-10.541z"/><path d="M178.732 128c0-6.373-4.355-11.656-10.055-12.629.637-1.564.992-3.289.992-5.104 0-7.065-5.352-12.792-11.953-12.792-.087 0-.172.005-.258.007-1.081-5.505-5.47-9.703-10.838-10.111-2.081-3.761-5.909-6.284-10.29-6.284-3.241 0-6.178 1.382-8.331 3.623-2.153-2.241-5.091-3.623-8.331-3.623-4.381 0-8.209 2.523-10.29 6.284-5.369.408-9.757 4.606-10.838 10.111-.086-.002-.172-.007-.258-.007-6.602 0-11.953 5.727-11.953 12.792 0 1.814.355 3.539.992 5.104-5.699.973-10.055 6.256-10.055 12.629s4.355 11.656 10.055 12.629a13.508 13.508 0 0 0-.992 5.104c0 7.065 5.352 12.792 11.953 12.792.086 0 .172-.005.258-.007 1.081 5.505 5.469 9.703 10.838 10.111 2.081 3.761 5.909 6.284 10.29 6.284 3.24 0 6.178-1.382 8.331-3.623 2.153 2.241 5.09 3.623 8.331 3.623 4.381 0 8.209-2.523 10.29-6.284 5.368-.408 9.757-4.606 10.838-10.111.086.002.171.007.258.007 6.602 0 11.953-5.727 11.953-12.792 0-1.814-.355-3.539-.992-5.104 5.7-.973 10.055-6.256 10.055-12.629z" style="fill:#fd919e"/><path d="M138.923 166.551a2.227 2.227 0 0 1 1.848-.962c2.29.026 7.231-.762 8.768-7.753.198-.904.89-1.645 1.806-1.78 5.371-.793 9.509-5.726 9.509-11.692 0-.918-.099-1.811-.284-2.668a2.266 2.266 0 0 1 1.398-2.605c4.23-1.651 7.249-5.992 7.249-11.09s-3.02-9.438-7.249-11.09a2.264 2.264 0 0 1-1.398-2.605c.186-.857.284-1.75.284-2.668-.514-8.397-7.101-10.874-9.96-11.557a2.249 2.249 0 0 1-1.631-1.523c-1.285-4.14-4.654-7.26-8.776-7.939a2.142 2.142 0 0 1-1.402-.913c-2.208-3.194-6.894-6.174-11.083-4.994 2.153-2.241 5.09-3.623 8.331-3.623 4.381 0 8.209 2.523 10.29 6.284 5.368.408 9.757 4.606 10.838 10.111.086-.002.171-.007.258-.007 6.602 0 11.953 5.727 11.953 12.791 0 1.815-.355 3.54-.992 5.104 5.699.973 10.055 6.256 10.055 12.629s-4.355 11.656-10.055 12.629c.637 1.564.992 3.289.992 5.104 0 7.064-5.352 12.791-11.953 12.791-.087 0-.172-.005-.258-.007-1.081 5.505-5.47 9.703-10.838 10.111-2.081 3.761-5.909 6.284-10.29 6.284-2.872 0-5.502-1.089-7.564-2.896-.001.001 5.949.522 10.154-5.466z" style="fill:#e8677d"/><path class="st0" d="M128 174.29a3 3 0 0 1-3-3V84.71a3 3 0 1 1 6 0v86.58a3 3 0 0 1-3 3zM87.318 143.629a3 3 0 0 1-.459-5.964c.703-.124 2.32-.612 2.32-2.478a3 3 0 1 1 6 0c0 5.804-4.859 8.039-7.429 8.41a2.865 2.865 0 0 1-.432.032zM112.04 94.569a3 3 0 0 1-2.975-2.643c-.002-.017-.351-1.629-.412-1.645a3.002 3.002 0 0 1-2.186-3.637 3.002 3.002 0 0 1 3.637-2.186c.434.108 4.255 1.216 4.918 6.752a3 3 0 0 1-2.982 3.359zM98.541 161.518a3 3 0 0 1-.016-6c.11-.002 4.136-.1 5.976-2.616 1.262-1.725 1.344-4.425.246-8.025a2.999 2.999 0 1 1 5.738-1.75c1.688 5.534 1.292 10.032-1.179 13.367-3.677 4.967-10.477 5.024-10.765 5.024z"/><path class="st0" d="M128.002 115.118a2.995 2.995 0 0 1-2.336-1.115c-.199-.241-4.302-5.08-10.659-2.8a3 3 0 1 1-2.027-5.647c10.482-3.763 17.091 4.345 17.367 4.692a3 3 0 0 1-2.345 4.87z"/><path class="st0" d="M127.998 115.118a3 3 0 0 1-2.345-4.869c.276-.348 6.892-8.456 17.367-4.692a2.999 2.999 0 1 1-2.027 5.647c-6.483-2.324-10.605 2.733-10.646 2.784a2.998 2.998 0 0 1-2.349 1.13zM127.997 145.895c-.412 0-.831-.085-1.23-.266a2.994 2.994 0 0 1-1.506-3.951c.217-.487 5.448-11.895 17.088-10.552a3 3 0 0 1 2.639 3.322 2.993 2.993 0 0 1-3.322 2.639c-7.246-.826-10.784 6.729-10.932 7.051a3.013 3.013 0 0 1-2.737 1.757z"/><path class="st0" d="M136.331 177.913c-3.008 0-5.886-.936-8.331-2.675a14.305 14.305 0 0 1-8.331 2.675c-4.789 0-9.296-2.456-12.091-6.502-5.19-.992-9.529-4.848-11.359-10.037-7.272-1.064-12.889-7.673-12.889-15.642 0-1.044.096-2.073.285-3.081-5.568-2.353-9.348-8.06-9.348-14.651s3.779-12.299 9.348-14.651a16.699 16.699 0 0 1-.285-3.081c0-7.969 5.616-14.577 12.889-15.642 1.83-5.189 6.169-9.045 11.359-10.037 2.795-4.046 7.302-6.502 12.091-6.502 3.008 0 5.886.936 8.331 2.675a14.305 14.305 0 0 1 8.331-2.675c4.789 0 9.296 2.456 12.091 6.502 5.19.992 9.529 4.848 11.359 10.037 7.272 1.064 12.889 7.673 12.889 15.642 0 1.044-.096 2.073-.285 3.081 5.568 2.353 9.348 8.06 9.348 14.651s-3.779 12.299-9.348 14.651c.189 1.008.285 2.037.285 3.081 0 7.969-5.616 14.577-12.889 15.642-1.83 5.189-6.169 9.045-11.359 10.037-2.795 4.046-7.302 6.502-12.091 6.502zM128 168.29c.816 0 1.598.333 2.163.922 1.674 1.742 3.864 2.701 6.168 2.701 3.158 0 6.023-1.771 7.665-4.736a3 3 0 0 1 2.397-1.539c3.951-.301 7.291-3.466 8.122-7.698a3 3 0 0 1 3.011-2.421c.014 0 .128.005.138.004 4.99 0 9.005-4.392 9.005-9.79a10.5 10.5 0 0 0-.771-3.973 2.997 2.997 0 0 1 2.273-4.088c4.31-.735 7.56-4.894 7.56-9.672s-3.25-8.937-7.56-9.672a2.997 2.997 0 0 1-2.273-4.088 10.5 10.5 0 0 0 .771-3.973c0-5.399-4.017-9.792-8.953-9.792l-.189.006a2.978 2.978 0 0 1-3.012-2.421c-.831-4.232-4.171-7.397-8.122-7.698a2.998 2.998 0 0 1-2.397-1.539c-1.642-2.966-4.507-4.736-7.665-4.736-2.304 0-4.494.959-6.168 2.701-1.131 1.178-3.195 1.178-4.326 0-1.674-1.742-3.864-2.701-6.168-2.701-3.158 0-6.023 1.771-7.665 4.736a2.997 2.997 0 0 1-2.397 1.539c-3.951.301-7.291 3.466-8.122 7.698a3.007 3.007 0 0 1-3.15 2.417c-4.99 0-9.005 4.392-9.005 9.79 0 1.379.26 2.716.771 3.973a2.997 2.997 0 0 1-2.273 4.088c-4.31.735-7.56 4.894-7.56 9.672s3.25 8.937 7.56 9.672a2.997 2.997 0 0 1 2.273 4.088 10.5 10.5 0 0 0-.771 3.973c0 5.399 4.017 9.792 8.953 9.792l.189-.006.069-.001a2.998 2.998 0 0 1 2.942 2.422c.831 4.232 4.171 7.397 8.122 7.698a2.996 2.996 0 0 1 2.397 1.539c1.642 2.966 4.507 4.736 7.665 4.736 2.304 0 4.494-.959 6.168-2.701a3.006 3.006 0 0 1 2.165-.922z"/><path class="st0" d="M152.476 103.188a3 3 0 0 1-2.35-4.862c3.688-4.656 7.802-3.878 8.258-3.774l-1.332 5.85s.065.025.187.034c-.035-.014-1.083-.058-2.407 1.615a3.005 3.005 0 0 1-2.356 1.137z"/><g><path class="st0" d="M157.709 161.524c-.686 0-4.257-.173-6.977-3.635a2.999 2.999 0 1 1 4.717-3.707c.987 1.256 2.152 1.337 2.282 1.343l-.015 2.999.07 2.999-.077.001z"/></g><g><path class="st0" d="M157.715 121.56a3 3 0 0 1-2.305-4.918c5.47-6.58 13.759-4.252 14.109-4.15a3 3 0 0 1-1.665 5.765c-.235-.064-4.914-1.287-7.831 2.222a2.995 2.995 0 0 1-2.308 1.081z"/></g></svg>